<svg width="139" height="15" viewBox="0 0 139 15" fill="none" xmlns="http://www.w3.org/2000/svg">
<path d="M9.432 1.49V3.164H6.102V14H4.05V3.164H0.702V1.49H9.432ZM15.8122 14.162C14.8762 14.162 14.0302 13.952 13.2742 13.532C12.5182 13.1 11.9242 12.5 11.4922 11.732C11.0602 10.952 10.8442 10.052 10.8442 9.032C10.8442 8.024 11.0662 7.13 11.5102 6.35C11.9542 5.57 12.5602 4.97 13.3282 4.55C14.0962 4.13 14.9542 3.92 15.9022 3.92C16.8502 3.92 17.7082 4.13 18.4762 4.55C19.2442 4.97 19.8502 5.57 20.2942 6.35C20.7382 7.13 20.9602 8.024 20.9602 9.032C20.9602 10.04 20.7322 10.934 20.2762 11.714C19.8202 12.494 19.1962 13.1 18.4042 13.532C17.6242 13.952 16.7602 14.162 15.8122 14.162ZM15.8122 12.38C16.3402 12.38 16.8322 12.254 17.2882 12.002C17.7562 11.75 18.1342 11.372 18.4222 10.868C18.7102 10.364 18.8542 9.752 18.8542 9.032C18.8542 8.312 18.7162 7.706 18.4402 7.214C18.1642 6.71 17.7982 6.332 17.3422 6.08C16.8862 5.828 16.3942 5.702 15.8662 5.702C15.3382 5.702 14.8462 5.828 14.3902 6.08C13.9462 6.332 13.5922 6.71 13.3282 7.214C13.0642 7.706 12.9322 8.312 12.9322 9.032C12.9322 10.1 13.2022 10.928 13.7422 11.516C14.2942 12.092 14.9842 12.38 15.8122 12.38ZM27.2907 14.162C26.3547 14.162 25.5087 13.952 24.7527 13.532C23.9967 13.1 23.4027 12.5 22.9707 11.732C22.5387 10.952 22.3227 10.052 22.3227 9.032C22.3227 8.024 22.5447 7.13 22.9887 6.35C23.4327 5.57 24.0387 4.97 24.8067 4.55C25.5747 4.13 26.4327 3.92 27.3807 3.92C28.3287 3.92 29.1867 4.13 29.9547 4.55C30.7227 4.97 31.3287 5.57 31.7727 6.35C32.2167 7.13 32.4387 8.024 32.4387 9.032C32.4387 10.04 32.2107 10.934 31.7547 11.714C31.2987 12.494 30.6747 13.1 29.8827 13.532C29.1027 13.952 28.2387 14.162 27.2907 14.162ZM27.2907 12.38C27.8187 12.38 28.3107 12.254 28.7667 12.002C29.2347 11.75 29.6127 11.372 29.9007 10.868C30.1887 10.364 30.3327 9.752 30.3327 9.032C30.3327 8.312 30.1947 7.706 29.9187 7.214C29.6427 6.71 29.2767 6.332 28.8207 6.08C28.3647 5.828 27.8727 5.702 27.3447 5.702C26.8167 5.702 26.3247 5.828 25.8687 6.08C25.4247 6.332 25.0707 6.71 24.8067 7.214C24.5427 7.706 24.4107 8.312 24.4107 9.032C24.4107 10.1 24.6807 10.928 25.2207 11.516C25.7727 12.092 26.4627 12.38 27.2907 12.38ZM43.5572 8.798C43.5572 9.17 43.5332 9.506 43.4852 9.806H35.9072C35.9672 10.598 36.2612 11.234 36.7892 11.714C37.3172 12.194 37.9652 12.434 38.7332 12.434C39.8372 12.434 40.6172 11.972 41.0732 11.048H43.2872C42.9872 11.96 42.4412 12.71 41.6492 13.298C40.8692 13.874 39.8972 14.162 38.7332 14.162C37.7852 14.162 36.9332 13.952 36.1772 13.532C35.4332 13.1 34.8452 12.5 34.4132 11.732C33.9932 10.952 33.7832 10.052 33.7832 9.032C33.7832 8.012 33.9872 7.118 34.3952 6.35C34.8152 5.57 35.3972 4.97 36.1412 4.55C36.8972 4.13 37.7612 3.92 38.7332 3.92C39.6692 3.92 40.5032 4.124 41.2352 4.532C41.9672 4.94 42.5372 5.516 42.9452 6.26C43.3532 6.992 43.5572 7.838 43.5572 8.798ZM41.4152 8.15C41.4032 7.394 41.1332 6.788 40.6052 6.332C40.0772 5.876 39.4232 5.648 38.6432 5.648C37.9352 5.648 37.3292 5.876 36.8252 6.332C36.3212 6.776 36.0212 7.382 35.9252 8.15H41.4152ZM50.5806 3.92C51.3606 3.92 52.0566 4.082 52.6686 4.406C53.2926 4.73 53.7786 5.21 54.1266 5.846C54.4746 6.482 54.6486 7.25 54.6486 8.15V14H52.6146V8.456C52.6146 7.568 52.3926 6.89 51.9486 6.422C51.5046 5.942 50.8986 5.702 50.1306 5.702C49.3626 5.702 48.7506 5.942 48.2946 6.422C47.8506 6.89 47.6286 7.568 47.6286 8.456V14H45.5766V4.082H47.6286V5.216C47.9646 4.808 48.3906 4.49 48.9066 4.262C49.4346 4.034 49.9926 3.92 50.5806 3.92ZM60.866 14.162C60.086 14.162 59.384 14.024 58.76 13.748C58.148 13.46 57.662 13.076 57.302 12.596C56.942 12.104 56.75 11.558 56.726 10.958H58.85C58.886 11.378 59.084 11.732 59.444 12.02C59.816 12.296 60.278 12.434 60.83 12.434C61.406 12.434 61.85 12.326 62.162 12.11C62.486 11.882 62.648 11.594 62.648 11.246C62.648 10.874 62.468 10.598 62.108 10.418C61.76 10.238 61.202 10.04 60.434 9.824C59.69 9.62 59.084 9.422 58.616 9.23C58.148 9.038 57.74 8.744 57.392 8.348C57.056 7.952 56.888 7.43 56.888 6.782C56.888 6.254 57.044 5.774 57.356 5.342C57.668 4.898 58.112 4.55 58.688 4.298C59.276 4.046 59.948 3.92 60.704 3.92C61.832 3.92 62.738 4.208 63.422 4.784C64.118 5.348 64.49 6.122 64.538 7.106H62.486C62.45 6.662 62.27 6.308 61.946 6.044C61.622 5.78 61.184 5.648 60.632 5.648C60.092 5.648 59.678 5.75 59.39 5.954C59.102 6.158 58.958 6.428 58.958 6.764C58.958 7.028 59.054 7.25 59.246 7.43C59.438 7.61 59.672 7.754 59.948 7.862C60.224 7.958 60.632 8.084 61.172 8.24C61.892 8.432 62.48 8.63 62.936 8.834C63.404 9.026 63.806 9.314 64.142 9.698C64.478 10.082 64.652 10.592 64.664 11.228C64.664 11.792 64.508 12.296 64.196 12.74C63.884 13.184 63.44 13.532 62.864 13.784C62.3 14.036 61.634 14.162 60.866 14.162ZM75.8633 4.082V14H73.8113V12.83C73.4873 13.238 73.0613 13.562 72.5333 13.802C72.0173 14.03 71.4653 14.144 70.8773 14.144C70.0973 14.144 69.3953 13.982 68.7713 13.658C68.1593 13.334 67.6733 12.854 67.3133 12.218C66.9653 11.582 66.7913 10.814 66.7913 9.914V4.082H68.8253V9.608C68.8253 10.496 69.0473 11.18 69.4913 11.66C69.9353 12.128 70.5413 12.362 71.3093 12.362C72.0773 12.362 72.6833 12.128 73.1273 11.66C73.5833 11.18 73.8113 10.496 73.8113 9.608V4.082H75.8633ZM80.6227 5.522C80.9227 5.018 81.3187 4.628 81.8107 4.352C82.3147 4.064 82.9087 3.92 83.5927 3.92V6.044H83.0707C82.2667 6.044 81.6547 6.248 81.2347 6.656C80.8267 7.064 80.6227 7.772 80.6227 8.78V14H78.5707V4.082H80.6227V5.522ZM94.5689 8.798C94.5689 9.17 94.5449 9.506 94.4969 9.806H86.9189C86.9789 10.598 87.2729 11.234 87.8009 11.714C88.3289 12.194 88.9769 12.434 89.7449 12.434C90.8489 12.434 91.6289 11.972 92.0849 11.048H94.2989C93.9989 11.96 93.4529 12.71 92.6609 13.298C91.8809 13.874 90.9089 14.162 89.7449 14.162C88.7969 14.162 87.9449 13.952 87.1889 13.532C86.4449 13.1 85.8569 12.5 85.4249 11.732C85.0049 10.952 84.7949 10.052 84.7949 9.032C84.7949 8.012 84.9989 7.118 85.4069 6.35C85.8269 5.57 86.4089 4.97 87.1529 4.55C87.9089 4.13 88.7729 3.92 89.7449 3.92C90.6809 3.92 91.5149 4.124 92.2469 4.532C92.9789 4.94 93.5489 5.516 93.9569 6.26C94.3649 6.992 94.5689 7.838 94.5689 8.798ZM92.4269 8.15C92.4149 7.394 92.1449 6.788 91.6169 6.332C91.0889 5.876 90.4349 5.648 89.6549 5.648C88.9469 5.648 88.3409 5.876 87.8369 6.332C87.3329 6.776 87.0329 7.382 86.9369 8.15H92.4269Z" fill="#A7586C"/>
<path d="M97.4163 14.126C97.0443 14.126 96.7323 14 96.4803 13.748C96.2283 13.496 96.1023 13.184 96.1023 12.812C96.1023 12.44 96.2283 12.128 96.4803 11.876C96.7323 11.624 97.0443 11.498 97.4163 11.498C97.7763 11.498 98.0823 11.624 98.3343 11.876C98.5863 12.128 98.7123 12.44 98.7123 12.812C98.7123 13.184 98.5863 13.496 98.3343 13.748C98.0823 14 97.7763 14.126 97.4163 14.126ZM103.324 5.756V11.246C103.324 11.618 103.408 11.888 103.576 12.056C103.756 12.212 104.056 12.29 104.476 12.29H105.736V14H104.116C103.192 14 102.484 13.784 101.992 13.352C101.5 12.92 101.254 12.218 101.254 11.246V5.756H100.084V4.082H101.254V1.616H103.324V4.082H105.736V5.756H103.324ZM116.717 8.798C116.717 9.17 116.693 9.506 116.645 9.806H109.067C109.127 10.598 109.421 11.234 109.949 11.714C110.477 12.194 111.125 12.434 111.893 12.434C112.997 12.434 113.777 11.972 114.233 11.048H116.447C116.147 11.96 115.601 12.71 114.809 13.298C114.029 13.874 113.057 14.162 111.893 14.162C110.945 14.162 110.093 13.952 109.337 13.532C108.593 13.1 108.005 12.5 107.573 11.732C107.153 10.952 106.943 10.052 106.943 9.032C106.943 8.012 107.147 7.118 107.555 6.35C107.975 5.57 108.557 4.97 109.301 4.55C110.057 4.13 110.921 3.92 111.893 3.92C112.829 3.92 113.663 4.124 114.395 4.532C115.127 4.94 115.697 5.516 116.105 6.26C116.513 6.992 116.717 7.838 116.717 8.798ZM114.575 8.15C114.563 7.394 114.293 6.788 113.765 6.332C113.237 5.876 112.583 5.648 111.803 5.648C111.095 5.648 110.489 5.876 109.985 6.332C109.481 6.776 109.181 7.382 109.085 8.15H114.575ZM118.053 9.032C118.053 8.012 118.257 7.118 118.665 6.35C119.085 5.57 119.661 4.97 120.393 4.55C121.125 4.13 121.965 3.92 122.913 3.92C124.113 3.92 125.103 4.208 125.883 4.784C126.675 5.348 127.209 6.158 127.485 7.214H125.271C125.091 6.722 124.803 6.338 124.407 6.062C124.011 5.786 123.513 5.648 122.913 5.648C122.073 5.648 121.401 5.948 120.897 6.548C120.405 7.136 120.159 7.964 120.159 9.032C120.159 10.1 120.405 10.934 120.897 11.534C121.401 12.134 122.073 12.434 122.913 12.434C124.101 12.434 124.887 11.912 125.271 10.868H127.485C127.197 11.876 126.657 12.68 125.865 13.28C125.073 13.868 124.089 14.162 122.913 14.162C121.965 14.162 121.125 13.952 120.393 13.532C119.661 13.1 119.085 12.5 118.665 11.732C118.257 10.952 118.053 10.052 118.053 9.032ZM134.66 3.92C135.416 3.92 136.088 4.082 136.676 4.406C137.276 4.73 137.744 5.21 138.08 5.846C138.428 6.482 138.602 7.25 138.602 8.15V14H136.568V8.456C136.568 7.568 136.346 6.89 135.902 6.422C135.458 5.942 134.852 5.702 134.084 5.702C133.316 5.702 132.704 5.942 132.248 6.422C131.804 6.89 131.582 7.568 131.582 8.456V14H129.53V0.68H131.582V5.234C131.93 4.814 132.368 4.49 132.896 4.262C133.436 4.034 134.024 3.92 134.66 3.92Z" fill="#C4C4C4"/>
</svg>
